<?xml version="1.0" encoding="UTF-8" standalone="no"?>
<!-- Created with Inkscape (http://www.inkscape.org/) -->

<svg
   xmlns:dc="http://purl.org/dc/elements/1.1/"
   xmlns:cc="http://creativecommons.org/ns#"
   xmlns:rdf="http://www.w3.org/1999/02/22-rdf-syntax-ns#"
   xmlns:svg="http://www.w3.org/2000/svg"
   xmlns="http://www.w3.org/2000/svg"
   version="1.1"
   width="546.15247"
   height="142.79477"
   id="svg3004"
   xml:space="preserve"><metadata
     id="metadata3010"><rdf:RDF><cc:Work
         rdf:about=""><dc:format>image/svg+xml</dc:format><dc:type
           rdf:resource="http://purl.org/dc/dcmitype/StillImage" /><dc:title></dc:title></cc:Work></rdf:RDF></metadata><defs
     id="defs3008" /><g
     transform="matrix(1.25,0,0,-1.25,0,142.79477)"
     id="g3012"><g
       id="g3014"><path
         d="m 128.906,16.943 0,25.008 -14.355,0 0,-7.305 5.988,0 0,-1.609 c 0.008,-2.344 -0.187,-4.274 -0.582,-5.778 -0.398,-1.504 -1.066,-2.613 -1.996,-3.332 -0.934,-0.711 -2.184,-1.062 -3.762,-1.062 -1.289,0 -2.324,0.304 -3.137,0.937 -0.804,0.633 -1.425,1.61 -1.851,2.93 -0.438,1.312 -0.727,3 -0.891,5.062 -0.156,2.047 -0.234,4.5 -0.222,7.34 -0.012,2.5 0.007,4.731 0.054,6.688 0.051,1.953 0.176,3.648 0.379,5.078 0.203,1.433 0.535,2.613 1,3.543 0.453,0.93 1.102,1.621 1.918,2.07 0.824,0.449 1.879,0.668 3.156,0.668 2.047,0 3.586,-0.699 4.645,-2.098 1.043,-1.398 1.578,-3.476 1.578,-6.234 l 0,-0.461 8.078,0 0,1.149 c 0,3.277 -0.519,5.968 -1.566,8.078 -1.059,2.117 -2.664,3.687 -4.817,4.715 -2.16,1.023 -4.894,1.531 -8.207,1.523 -2.898,0.008 -5.347,-0.422 -7.343,-1.293 -2.008,-0.875 -3.625,-2.227 -4.864,-4.055 -1.066,-1.597 -1.812,-3.824 -2.257,-6.675 -0.446,-2.848 -0.661,-6.356 -0.653,-10.512 -0.008,-4.379 0.176,-8.176 0.563,-11.375 0.398,-3.211 1.078,-5.852 2.047,-7.934 0.968,-2.09 2.316,-3.629 4.039,-4.644 1.726,-1.016 3.906,-1.516 6.55,-1.516 1.754,-0.008 3.274,0.203 4.543,0.613 1.27,0.414 2.356,1.075 3.239,1.973 0.89,0.91 1.625,2.098 2.218,3.566 l 0.637,-5.058 5.871,0 z m 55.383,0.012 -16.441,72.484 -18.168,0 -16.258,-72.484 13.715,0 3.543,18.257 15.441,0 3.633,-18.257 14.535,0 z m -20.074,29.156 -11.445,0 5.722,30.34 5.723,-30.34 z M 247,43.876 l 0,70.36 -16.023,0 0,-68.723 c 0,-3.012 -0.137,-5.633 -0.438,-7.832 -0.297,-2.195 -0.832,-4.015 -1.613,-5.43 -0.785,-1.418 -1.891,-2.472 -3.328,-3.164 -1.434,-0.671 -3.27,-1.015 -5.524,-1.015 -2.304,0 -4.195,0.328 -5.668,1 -1.468,0.672 -2.613,1.707 -3.414,3.105 -0.816,1.418 -1.375,3.199 -1.687,5.36 -0.321,2.179 -0.457,4.761 -0.457,7.757 l 0,68.942 -16.239,0 0,-70.36 c 0,-5.136 0.418,-9.558 1.325,-13.222 0.906,-3.668 2.398,-6.668 4.488,-8.996 2.07,-2.325 4.851,-4.051 8.355,-5.141 3.489,-1.105 7.813,-1.633 12.973,-1.633 5.34,0 9.918,0.762 13.754,2.289 3.812,1.524 6.902,3.813 9.246,6.868 1.324,1.742 2.289,3.613 2.887,5.628 0.617,2.02 1.011,4.2 1.164,6.543 0.152,2.36 0.219,4.903 0.199,7.664 z m 55.246,-8.031 c 0,2.637 -0.258,4.969 -0.789,6.996 -0.527,2.028 -1.348,3.875 -2.453,5.528 -1.106,1.648 -2.512,3.222 -4.238,4.722 -1.711,1.516 -3.77,3.059 -6.145,4.649 l -7.449,4.996 c -1.742,1.148 -3.227,2.222 -4.496,3.207 -1.258,0.984 -2.227,2.027 -2.906,3.121 -0.7,1.105 -1.032,2.422 -1.047,3.934 0.015,2.289 0.621,4.058 1.816,5.3 1.195,1.243 2.895,1.86 5.09,1.875 1.996,0.016 3.601,-0.363 4.828,-1.132 1.227,-0.758 2.133,-1.954 2.695,-3.575 0.559,-1.621 0.848,-3.711 0.832,-6.281 l 0,-1.91 12.809,0 c 0.043,0.457 0.074,0.894 0.074,1.316 0.016,0.426 0.016,0.864 0.016,1.321 -0.016,4.617 -0.817,8.492 -2.422,11.64 -1.606,3.164 -3.969,5.555 -7.055,7.176 -3.09,1.621 -6.859,2.438 -11.324,2.438 -4.254,-0.016 -7.902,-0.79 -10.93,-2.333 -3.027,-1.542 -5.343,-3.753 -6.964,-6.66 -1.622,-2.89 -2.438,-6.375 -2.454,-10.445 0,-2.543 0.289,-4.738 0.848,-6.602 0.559,-1.863 1.406,-3.527 2.543,-5.011 1.121,-1.485 2.559,-2.922 4.27,-4.313 1.726,-1.394 3.738,-2.906 6.054,-4.511 l 6.996,-4.907 c 1.391,-0.984 2.586,-1.906 3.633,-2.754 1.027,-0.863 1.891,-1.726 2.574,-2.574 0.696,-0.863 1.211,-1.801 1.543,-2.816 0.348,-1.016 0.516,-2.18 0.516,-3.485 0,-2.785 -0.742,-4.886 -2.227,-6.339 -1.484,-1.454 -3.679,-2.18 -6.586,-2.196 -2.027,0 -3.586,0.406 -4.644,1.254 -1.078,0.832 -1.805,2.106 -2.184,3.817 -0.379,1.71 -0.558,3.859 -0.527,6.464 l 0,4.633 -13.535,0 c -0.047,-0.773 -0.09,-1.515 -0.121,-2.242 -0.047,-0.727 -0.063,-1.438 -0.063,-2.117 -0.012,-7.66 1.758,-13.383 5.332,-17.153 3.559,-3.769 8.992,-5.664 16.289,-5.648 4.707,0.016 8.672,0.832 11.914,2.438 3.239,1.621 5.692,3.953 7.36,7.023 1.679,3.059 2.511,6.781 2.527,11.156 z m 35.477,-7.73 c 0,1.566 -0.168,2.953 -0.504,4.16 -0.34,1.207 -0.864,2.305 -1.571,3.285 -0.707,0.984 -1.609,1.918 -2.714,2.809 -1.094,0.902 -2.411,1.82 -3.934,2.765 l -4.766,2.973 c -1.113,0.684 -2.062,1.324 -2.879,1.91 -0.804,0.582 -1.421,1.207 -1.859,1.852 -0.445,0.66 -0.66,1.441 -0.668,2.343 0.008,1.36 0.399,2.414 1.16,3.153 0.77,0.738 1.852,1.105 3.258,1.117 1.277,0.008 2.305,-0.219 3.09,-0.676 0.785,-0.453 1.367,-1.164 1.726,-2.125 0.36,-0.965 0.543,-2.207 0.532,-3.738 l 0,-1.137 8.199,0 c 0.027,0.274 0.047,0.535 0.047,0.785 0.008,0.254 0.008,0.512 0.008,0.785 -0.008,2.747 -0.524,5.051 -1.547,6.922 -1.028,1.883 -2.539,3.305 -4.516,4.27 -1.976,0.965 -4.39,1.449 -7.25,1.449 -2.723,-0.008 -5.055,-0.469 -6.992,-1.387 -1.941,-0.918 -3.422,-2.234 -4.457,-3.961 -1.039,-1.722 -1.563,-3.793 -1.57,-6.214 0,-1.512 0.183,-2.817 0.543,-3.926 0.359,-1.11 0.898,-2.098 1.625,-2.981 0.718,-0.882 1.636,-1.738 2.734,-2.566 1.102,-0.828 2.391,-1.727 3.875,-2.684 l 4.477,-2.918 c 0.89,-0.582 1.656,-1.132 2.324,-1.636 0.66,-0.516 1.211,-1.028 1.648,-1.532 0.446,-0.515 0.774,-1.07 0.988,-1.675 0.223,-0.606 0.329,-1.297 0.329,-2.071 0,-1.656 -0.473,-2.91 -1.422,-3.773 -0.953,-0.863 -2.356,-1.297 -4.215,-1.305 -1.301,0 -2.297,0.242 -2.977,0.746 -0.687,0.496 -1.152,1.25 -1.394,2.27 -0.242,1.015 -0.36,2.297 -0.34,3.844 l 0,2.757 -8.66,0 c -0.031,-0.461 -0.059,-0.902 -0.078,-1.336 -0.032,-0.429 -0.039,-0.851 -0.039,-1.257 -0.012,-4.559 1.125,-7.961 3.41,-10.204 2.277,-2.242 5.754,-3.367 10.426,-3.359 3.011,0.008 5.55,0.496 7.625,1.449 2.074,0.965 3.644,2.352 4.707,4.18 1.078,1.816 1.609,4.035 1.621,6.637 z"
         id="path3016"
         style="fill:#000000;fill-opacity:1;fill-rule:evenodd;stroke:none" /><path
         d="m 342.531,53.244 c 2.262,-20.571 1.719,-26.317 -2.289,-37.196 l 0,-0.113 c 16.344,0 79.875,0.953 96.219,0.953 -48.734,6.602 -67.309,15.559 -93.93,36.356 z"
         id="path3018"
         style="fill:#000000;fill-opacity:1;fill-rule:evenodd;stroke:none" /><path
         d="M 94.391,53.244 C 92.129,32.673 92.672,26.927 96.68,16.048 l 0,-0.113 c -16.344,0 -79.875,0.953 -96.219,0.953 C 45,23.869 67.77,32.447 94.391,53.244 z"
         id="path3020"
         style="fill:#000000;fill-opacity:1;fill-rule:evenodd;stroke:none" /><path
         d="m 2.973,6.541 5.086,4.707 4,0 -5.028,-4.399 5.41,-6.543 -4.015,0 -3.723,4.735 -1.73,-1.489 0,-3.246 -2.973,0 0,10.942 2.973,0 0,-4.707 z"
         id="path3022"
         style="fill:#000000;fill-opacity:1;fill-rule:evenodd;stroke:none" /><path
         d="m 15.871,5.775 c 0,-0.988 0.274,-1.817 0.813,-2.481 0.656,-0.808 1.601,-1.211 2.836,-1.211 1.238,0 2.179,0.403 2.835,1.211 0.54,0.664 0.809,1.493 0.809,2.481 0,0.992 -0.269,1.82 -0.809,2.484 C 21.699,9.064 20.758,9.47 19.52,9.47 18.285,9.47 17.34,9.064 16.684,8.259 16.145,7.595 15.871,6.767 15.871,5.775 z m -3.152,0 c 0,1.543 0.394,2.789 1.191,3.738 1.125,1.36 2.996,2.039 5.61,2.039 2.617,0 4.484,-0.679 5.609,-2.039 0.797,-0.949 1.195,-2.195 1.195,-3.738 0,-1.539 -0.398,-2.789 -1.195,-3.738 -1.125,-1.36 -2.992,-2.036 -5.609,-2.036 -2.614,0 -4.485,0.676 -5.61,2.036 -0.797,0.949 -1.191,2.199 -1.191,3.738 z"
         id="path3024"
         style="fill:#000000;fill-opacity:1;fill-rule:evenodd;stroke:none" /><path
         d="m 27.793,0.306 0,3.293 -0.719,-0.488 0,2.082 0.719,0.492 0,5.563 2.973,0 0,-3.77 2.359,1.531 0,-2.082 -2.359,-1.535 0,-2.91 6.664,0 0,-2.176 -9.637,0 z"
         id="path3026"
         style="fill:#000000;fill-opacity:1;fill-rule:evenodd;stroke:none" /><path
         d="m 41.398,5.775 c 0,-0.988 0.274,-1.817 0.813,-2.481 0.652,-0.808 1.598,-1.211 2.836,-1.211 1.234,0 2.18,0.403 2.832,1.211 0.543,0.664 0.812,1.493 0.812,2.481 0,0.992 -0.269,1.82 -0.812,2.484 C 47.227,9.064 46.281,9.47 45.047,9.47 43.809,9.47 42.863,9.064 42.211,8.259 41.672,7.595 41.398,6.767 41.398,5.775 z m -3.156,0 c 0,1.543 0.399,2.789 1.196,3.738 1.124,1.36 2.992,2.039 5.609,2.039 2.613,0 4.484,-0.679 5.605,-2.039 0.797,-0.949 1.196,-2.195 1.196,-3.738 0,-1.539 -0.399,-2.789 -1.196,-3.738 -1.121,-1.36 -2.992,-2.036 -5.605,-2.036 -2.617,0 -4.485,0.676 -5.609,2.036 -0.797,0.949 -1.196,2.199 -1.196,3.738 z"
         id="path3028"
         style="fill:#000000;fill-opacity:1;fill-rule:evenodd;stroke:none" /><path
         d="m 166.938,8.076 -3.293,0 c -0.083,0.632 -0.415,1.07 -0.997,1.316 -0.398,0.176 -0.98,0.262 -1.746,0.262 -0.605,0 -1.09,-0.121 -1.464,-0.36 -0.372,-0.242 -0.559,-0.55 -0.559,-0.929 0,-0.551 0.418,-0.895 1.258,-1.028 l 3.722,-0.593 c 2.34,-0.379 3.508,-1.403 3.508,-3.067 0,-2.453 -1.894,-3.676 -5.683,-3.676 -1.778,0 -3.133,0.2 -4.059,0.598 -1.391,0.582 -2.09,1.633 -2.102,3.156 l 3.34,0 c 0.02,-1.175 0.961,-1.761 2.821,-1.761 1.562,0 2.343,0.453 2.343,1.363 0,0.398 -0.164,0.687 -0.488,0.871 -0.258,0.152 -0.711,0.281 -1.367,0.383 l -2.711,0.414 c -1.164,0.176 -2.027,0.445 -2.59,0.812 -0.766,0.512 -1.148,1.274 -1.148,2.282 0,2.289 1.808,3.433 5.425,3.433 3.707,0 5.637,-1.16 5.79,-3.476 z"
         id="path3030"
         style="fill:#000000;fill-opacity:1;fill-rule:evenodd;stroke:none" /><path
         d="m 171.734,0.306 0,8.856 -4.058,0 0,2.086 11.09,0 0,-2.086 -4.059,0 0,-8.856 -2.973,0 z"
         id="path3032"
         style="fill:#000000;fill-opacity:1;fill-rule:evenodd;stroke:none" /><path
         d="m 187.977,0.306 -0.891,2.254 -5.024,0 -0.89,-2.254 -3.203,0 4.812,10.942 3.586,0 4.809,-10.942 -3.199,0 z m -1.688,4.242 -1.715,4.336 -1.715,-4.336 3.43,0 z"
         id="path3034"
         style="fill:#000000;fill-opacity:1;fill-rule:evenodd;stroke:none" /><path
         d="m 194.164,0.306 0,8.856 -4.059,0 0,2.086 11.094,0 0,-2.086 -4.062,0 0,-8.856 -2.973,0 z"
         id="path3036"
         style="fill:#000000;fill-opacity:1;fill-rule:evenodd;stroke:none" /><path
         d="m 205.656,0.306 0,3.817 -4.84,7.125 3.493,0 2.836,-4.766 2.832,4.766 3.492,0 -4.84,-7.125 0,-3.817 -2.973,0 z"
         id="path3038"
         style="fill:#000000;fill-opacity:1;fill-rule:evenodd;stroke:none" /><path
         d="m 224.84,8.076 -3.293,0 c -0.082,0.632 -0.414,1.07 -0.996,1.316 -0.399,0.176 -0.981,0.262 -1.75,0.262 -0.602,0 -1.09,-0.121 -1.461,-0.36 -0.375,-0.242 -0.559,-0.55 -0.559,-0.929 0,-0.551 0.418,-0.895 1.254,-1.028 l 3.723,-0.593 c 2.34,-0.379 3.512,-1.403 3.512,-3.067 0,-2.453 -1.895,-3.676 -5.688,-3.676 -1.773,0 -3.129,0.2 -4.059,0.598 -1.39,0.582 -2.089,1.633 -2.097,3.156 l 3.34,0 c 0.019,-1.175 0.961,-1.761 2.816,-1.761 1.566,0 2.348,0.453 2.348,1.363 0,0.398 -0.164,0.687 -0.492,0.871 -0.254,0.152 -0.708,0.281 -1.364,0.383 l -2.711,0.414 c -1.164,0.176 -2.027,0.445 -2.59,0.812 -0.765,0.512 -1.148,1.274 -1.148,2.282 0,2.289 1.809,3.433 5.422,3.433 3.707,0 5.641,-1.16 5.793,-3.476 z"
         id="path3040"
         style="fill:#000000;fill-opacity:1;fill-rule:evenodd;stroke:none" /><path
         d="m 229.637,0.306 0,8.856 -4.063,0 0,2.086 11.094,0 0,-2.086 -4.059,0 0,-8.856 -2.972,0 z"
         id="path3042"
         style="fill:#000000;fill-opacity:1;fill-rule:evenodd;stroke:none" /><path
         d="m 241.125,0.306 0,3.817 -4.84,7.125 3.492,0 2.836,-4.766 2.836,4.766 3.492,0 -4.843,-7.125 0,-3.817 -2.973,0 z"
         id="path3044"
         style="fill:#000000;fill-opacity:1;fill-rule:evenodd;stroke:none" /><path
         d="m 252.586,6.541 5.086,4.707 4,0 -5.024,-4.399 5.407,-6.543 -4.012,0 -3.723,4.735 -1.734,-1.489 0,-3.246 -2.973,0 0,10.942 2.973,0 0,-4.707 z"
         id="path3046"
         style="fill:#000000;fill-opacity:1;fill-rule:evenodd;stroke:none" /><path
         d="m 262.945,0.306 0,10.942 2.973,0 0,-10.942 -2.973,0 z"
         id="path3048"
         style="fill:#000000;fill-opacity:1;fill-rule:evenodd;stroke:none" /><path
         d="m 280.027,3.373 3.25,7.875 4.368,0 0,-10.942 -2.883,0 0,8.766 -0.032,0 -3.46,-8.766 -2.481,0 -3.465,8.766 -0.027,0 0,-8.766 -2.883,0 0,10.942 4.367,0 3.246,-7.875 z"
         id="path3050"
         style="fill:#000000;fill-opacity:1;fill-rule:evenodd;stroke:none" /><path
         d="m 298.477,0.306 -0.887,2.254 -5.028,0 -0.89,-2.254 -3.199,0 4.808,10.942 3.586,0 4.813,-10.942 -3.203,0 z m -1.688,4.242 -1.715,4.336 -1.715,-4.336 3.43,0 z"
         id="path3052"
         style="fill:#000000;fill-opacity:1;fill-rule:evenodd;stroke:none" /><path
         d="m 304.664,0.306 0,8.856 -4.059,0 0,2.086 11.094,0 0,-2.086 -4.062,0 0,-8.856 -2.973,0 z"
         id="path3054"
         style="fill:#000000;fill-opacity:1;fill-rule:evenodd;stroke:none" /><path
         d="m 312.727,0.306 0,10.942 10.218,0 0,-2.086 -7.246,0 0,-2.266 6.879,0 0,-1.992 -6.879,0 0,-2.516 7.309,0 0,-2.082 -10.281,0 z"
         id="path3056"
         style="fill:#000000;fill-opacity:1;fill-rule:evenodd;stroke:none" /><path
         d="m 332.262,3.373 3.246,7.875 4.367,0 0,-10.942 -2.879,0 0,8.766 -0.031,0 -3.465,-8.766 -2.48,0 -3.465,8.766 -0.028,0 0,-8.766 -2.882,0 0,10.942 4.367,0 3.25,-7.875 z"
         id="path3058"
         style="fill:#000000;fill-opacity:1;fill-rule:evenodd;stroke:none" /><path
         d="m 350.707,0.306 -0.887,2.254 -5.027,0 -0.891,-2.254 -3.199,0 4.809,10.942 3.586,0 4.812,-10.942 -3.203,0 z m -1.684,4.242 -1.718,4.336 -1.715,-4.336 3.433,0 z"
         id="path3060"
         style="fill:#000000;fill-opacity:1;fill-rule:evenodd;stroke:none" /><path
         d="m 356.898,0.306 0,8.856 -4.062,0 0,2.086 11.094,0 0,-2.086 -4.059,0 0,-8.856 -2.973,0 z"
         id="path3062"
         style="fill:#000000;fill-opacity:1;fill-rule:evenodd;stroke:none" /><path
         d="m 368.391,0.306 0,3.817 -4.844,7.125 3.492,0 2.836,-4.766 2.836,4.766 3.492,0 -4.844,-7.125 0,-3.817 -2.968,0 z"
         id="path3064"
         style="fill:#000000;fill-opacity:1;fill-rule:evenodd;stroke:none" /><path
         d="m 389.316,7.111 -3.203,0 c -0.129,0.765 -0.492,1.355 -1.086,1.773 -0.55,0.391 -1.23,0.586 -2.039,0.586 -1.254,0 -2.176,-0.429 -2.758,-1.289 -0.437,-0.644 -0.656,-1.445 -0.656,-2.406 0,-0.957 0.219,-1.762 0.656,-2.402 0.582,-0.86 1.504,-1.29 2.758,-1.29 0.789,0 1.453,0.192 1.992,0.567 0.625,0.418 1.004,1.039 1.133,1.855 l 3.235,0 c -0.172,-1.535 -0.864,-2.683 -2.067,-3.449 -1.105,-0.703 -2.57,-1.055 -4.398,-1.055 -4.313,0 -6.465,1.922 -6.465,5.774 0,3.851 2.152,5.777 6.465,5.777 3.941,0 6.09,-1.48 6.433,-4.441 z"
         id="path3066"
         style="fill:#000000;fill-opacity:1;fill-rule:evenodd;stroke:none" /><path
         d="m 389.977,0.306 0,1.899 7.23,6.957 -6.738,0 0,2.086 10.644,0 0,-1.903 -7.23,-6.957 7.23,0 0,-2.082 -11.136,0 z"
         id="path3068"
         style="fill:#000000;fill-opacity:1;fill-rule:evenodd;stroke:none" /><path
         d="m 411.625,3.615 0,7.633 2.883,0 0,-10.942 -3.235,0 -5.961,7.633 -0.031,0 0,-7.633 -2.879,0 0,10.942 3.446,0 5.746,-7.633 0.031,0 z"
         id="path3070"
         style="fill:#000000;fill-opacity:1;fill-rule:evenodd;stroke:none" /><path
         d="m 416.59,0.306 0,10.942 10.219,0 0,-2.086 -7.247,0 0,-2.266 6.879,0 0,-1.992 -6.879,0 0,-2.516 7.309,0 0,-2.082 -10.281,0 z"
         id="path3072"
         style="fill:#000000;fill-opacity:1;fill-rule:evenodd;stroke:none" /><path
         d="m 433.949,4.349 0,7.051 2.973,0 0,-6.68 c 0,-1.371 -0.195,-2.367 -0.582,-2.988 -0.652,-1.055 -1.93,-1.578 -3.832,-1.578 -1.481,0 -2.613,0.238 -3.399,0.719 -1.004,0.601 -1.519,1.808 -1.504,3.05 l 0,0.688 2.973,0 0,-0.766 c 0,-0.519 0.145,-0.933 0.438,-1.238 0.289,-0.309 0.679,-0.461 1.172,-0.461 0.714,0 1.199,0.207 1.457,0.629 0.203,0.312 0.144,0.859 0.304,1.574 z"
         id="path3074"
         style="fill:#000000;fill-opacity:1;fill-rule:evenodd;stroke:none" /><path
         d="m 67.57,3.615 0,7.633 2.879,0 0,-10.942 -3.23,0 -5.961,7.633 -0.031,0 0,-7.633 -2.879,0 0,10.942 3.445,0 5.746,-7.633 0.031,0 z"
         id="path3076"
         style="fill:#000000;fill-opacity:1;fill-rule:evenodd;stroke:none" /><path
         d="m 81.543,0.306 -0.891,2.254 -5.027,0 -0.887,-2.254 -3.203,0 4.813,10.942 3.586,0 4.808,-10.942 -3.199,0 z m -1.688,4.242 -1.714,4.336 -1.719,-4.336 3.433,0 z"
         id="path3078"
         style="fill:#000000;fill-opacity:1;fill-rule:evenodd;stroke:none" /><path
         d="m 90.988,4.349 0,7.047 2.973,0 0,-6.68 C 93.961,3.349 93.789,2.447 93.379,1.728 92.723,0.677 91.043,0.15 89.141,0.15 c -1.766,0 -2.782,0.598 -3.614,1.578 -0.597,0.629 -0.894,2.016 -0.882,3.027 0.011,1.008 0,6.645 0,6.645 l 2.972,0 0,-7.055 c 0,-0.762 -0.023,-0.863 0.223,-1.387 0.312,-0.472 0.512,-0.601 1.312,-0.625 0.692,-0.019 1.297,0.235 1.551,0.653 0.207,0.316 0.121,0.644 0.285,1.363 z"
         id="path3080"
         style="fill:#000000;fill-opacity:1;fill-rule:evenodd;stroke:none" /><path
         d="m 98.52,6.541 5.085,4.707 4,0 -5.027,-4.399 5.41,-6.543 -4.015,0 -3.723,4.735 -1.73,-1.489 0,-3.246 -2.973,0 0,10.942 2.973,0 0,-4.707 z"
         id="path3082"
         style="fill:#000000;fill-opacity:1;fill-rule:evenodd;stroke:none" /><path
         d="m 110.039,5.775 c 0,-0.988 0.27,-1.817 0.813,-2.481 0.652,-0.808 1.597,-1.211 2.832,-1.211 1.238,0 2.183,0.403 2.836,1.211 0.542,0.664 0.812,1.493 0.812,2.481 0,0.992 -0.27,1.82 -0.812,2.484 -0.653,0.805 -1.598,1.211 -2.836,1.211 -1.235,0 -2.18,-0.406 -2.832,-1.211 -0.543,-0.664 -0.813,-1.492 -0.813,-2.484 z m -3.156,0 c 0,1.543 0.398,2.789 1.195,3.738 1.121,1.36 2.992,2.039 5.606,2.039 2.617,0 4.484,-0.679 5.609,-2.039 0.797,-0.949 1.195,-2.195 1.195,-3.738 0,-1.539 -0.398,-2.789 -1.195,-3.738 -1.125,-1.36 -2.992,-2.036 -5.609,-2.036 -2.614,0 -4.485,0.676 -5.606,2.036 -0.797,0.949 -1.195,2.199 -1.195,3.738 z"
         id="path3084"
         style="fill:#000000;fill-opacity:1;fill-rule:evenodd;stroke:none" /><path
         d="m 129.363,8.181 3.25,-7.875 4.367,0 0,10.942 -2.882,0 0,-8.766 -0.032,0 -3.461,8.766 -2.48,0 -3.465,-8.766 -0.031,0 0,8.766 -2.879,0 0,-10.942 4.363,0 3.25,7.875 z"
         id="path3086"
         style="fill:#000000;fill-opacity:1;fill-rule:evenodd;stroke:none" /><path
         d="m 138.746,0.306 0,10.942 10.219,0 0,-2.086 -7.246,0 0,-2.266 6.879,0 0,-1.992 -6.879,0 0,-2.516 7.308,0 0,-2.082 -10.281,0 z"
         id="path3088"
         style="fill:#000000;fill-opacity:1;fill-rule:evenodd;stroke:none" /></g></g></svg>